inDegrees=no
num_controls=7
num_derivatives=13
num_iterations=36
num_multipliers=7
num_parameters=0
num_slacks=7
num_states=26
objective=0.417760
objective_accelerations=0.071549
objective_balance=0.001330
objective_effort=0.018628
objective_height=0.320377
objective_ligament=0.005876
solver_duration=525.470287
status=Solve_Succeeded
success=true
DataType=double
version=3
OpenSimVersion=4.5
endheader
time	/jointset/ground_pelvis/pelvis_tilt/value	/jointset/ground_pelvis/pelvis_tx/value	/jointset/ground_pelvis/pelvis_ty/value	/jointset/hip_l/hip_flexion_l/value	/jointset/hip_l/hip_adduction_l/value	/jointset/hip_l/hip_rotation_l/value	/jointset/back/lumbar_extension/value	/jointset/patellofemoral_l/patellar_flexion_l/value	/jointset/knee_l/knee_flexion_l/value	/jointset/knee_l/knee_adduction_l/value	/jointset/knee_l/knee_rotation_l/value	/jointset/ankle_l/ankle_angle_l/value	/jointset/subtalar_l/subtalar_angle_l/value	/jointset/ground_pelvis/pelvis_tilt/speed	/jointset/ground_pelvis/pelvis_tx/speed	/jointset/ground_pelvis/pelvis_ty/speed	/jointset/hip_l/hip_flexion_l/speed	/jointset/hip_l/hip_adduction_l/speed	/jointset/hip_l/hip_rotation_l/speed	/jointset/back/lumbar_extension/speed	/jointset/patellofemoral_l/patellar_flexion_l/speed	/jointset/knee_l/knee_flexion_l/speed	/jointset/knee_l/knee_adduction_l/speed	/jointset/knee_l/knee_rotation_l/speed	/jointset/ankle_l/ankle_angle_l/speed	/jointset/subtalar_l/subtalar_angle_l/speed	/forceset/tau_hip_flexion_l	/forceset/tau_hip_adduction_l	/forceset/tau_hip_rotation_l	/forceset/tau_knee_flexion_l	/forceset/tau_ankle_angle_l	/forceset/tau_subtalar_angle_l	/forceset/tau_lumbar_extension	lambda_cid13_p0	lambda_cid13_p1	lambda_cid13_p2	lambda_cid13_p3	lambda_cid13_p4	lambda_cid13_p5	lambda_cid14_p0	/jointset/ground_pelvis/pelvis_tilt/accel	/jointset/ground_pelvis/pelvis_tx/accel	/jointset/ground_pelvis/pelvis_ty/accel	/jointset/hip_l/hip_flexion_l/accel	/jointset/hip_l/hip_adduction_l/accel	/jointset/hip_l/hip_rotation_l/accel	/jointset/back/lumbar_extension/accel	/jointset/patellofemoral_l/patellar_flexion_l/accel	/jointset/knee_l/knee_flexion_l/accel	/jointset/knee_l/knee_adduction_l/accel	/jointset/knee_l/knee_rotation_l/accel	/jointset/ankle_l/ankle_angle_l/accel	/jointset/subtalar_l/subtalar_angle_l/accel	gamma_cid13_p0	gamma_cid13_p1	gamma_cid13_p2	gamma_cid13_p3	gamma_cid13_p4	gamma_cid13_p5	gamma_cid14_p0
1	-0.5313229947245378	-0.02333572312226956	0.4977917598465263	2.039788611877439	-0.3269258503732111	0.1872362563520276	-0.4362600304852264	1.740099088899295	1.740099088899406	0.117977714169004	-0.1744758304058424	0.4263948186734918	0.2750196571034554	-0.1552974047334464	-0.001857146647095884	0.04699907920908539	-0.005600446810082988	-0.008152558175434378	-0.05475103729298897	-0.0001998781558308782	-0.1772150590531515	-0.1772150590531521	-0.02515054400450186	6.743534300519705e-05	-0.03291407125584857	-0.03402568948563702	-0.2799156224801276	0.06274667714950911	-0.02820603842681462	-0.3141711439942095	-0.0002058042104300207	-0.0209771935571083	0.2323279686435486	-39.37979228259398	28.61913101123578	-19.2514699596841	4.392050711290078	-565.5268405146055	-30.16276665616061	-0.02228035380929129	1.188557273890021	0.1409788635010582	2.607439154681496	-8.091100452934993	-0.527489800601463	-1.91469581989608	-0.03133849760979417	-6.529635162847209	-6.529635162847399	-1.156893747101877	-0.03595009537750664	-0.198856398648475	-0.9542760923282838	-9.813430668209907e-11	-2.186246596404834e-07	-2.110305322404923e-07	-3.483340043958816e-08	-2.474930786449887e-08	-4.83652296748568e-07	3.426366402084714e-08
1.01	-0.5328171114486647	-0.02334718342040186	0.4983919211230641	2.039328950782484	-0.3270327123723711	0.186596972522447	-0.4362626256541896	1.738000856627697	1.738000856627716	0.1176655832014245	-0.1744751152643406	0.4260556460288106	0.2746332800402914	-0.1434903986340605	-0.0004193253645604312	0.07302310538688667	-0.08632720250524585	-0.01320663232005316	-0.07309158953429779	-0.0003216282171568801	-0.2424203033668461	-0.2424203033668476	-0.03726755045696942	7.661391146689349e-05	-0.03494614414072567	-0.0432419540746683	-0.2804125907510355	0.06270053299886137	-0.02811628089816968	-0.3132617916864335	-0.0005900108179117836	-0.02087848085942909	0.2326109311200249	-39.44234784366382	28.5275433507	-19.16871142291651	4.224713271099567	-565.3551975518835	-30.11651275401012	-0.0223030643091357	1.182103192197242	0.1475107560358528	2.598366509675093	-8.062778346715348	-0.4923453956825971	-1.791611947624847	-0.002964147270839257	-6.514314209388831	-6.514314209388846	-1.237884650377145	0.01942468981825468	-0.2092464702470894	-0.9040569200940021	1.986837744975675e-09	-2.823478439895322e-07	-2.874215283027369e-07	-5.552506805478249e-08	-3.605056280679525e-08	-6.204954258272939e-07	4.453962907108111e-08
1.02	-0.5341920919289543	-0.02334380010662771	0.4992520190934472	2.038062159086799	-0.3271897109478358	0.1857747077661898	-0.4362665125011326	1.735250902884211	1.735250902884135	0.1172325260581163	-0.1744742937657919	0.4256953799079061	0.2741549892756565	-0.1314701559653057	0.00111157573419185	0.09898641797847409	-0.1670265669567458	-0.01817987343629704	-0.09134722263066652	-0.0004582137535563027	-0.3075593534308773	-0.3075593534308787	-0.04933577915175913	8.870675433931031e-05	-0.03713276649919391	-0.0524084297798362	-0.2809095590219083	0.06265438884824995	-0.02802652336951759	-0.3123524393786578	-0.0009742174253922602	-0.02077976816168987	0.2328938935965471	-39.50399420369056	28.43504250793346	-19.08494554577064	4.037431574674132	-565.250625224878	-30.05118958323688	-0.02232975058578617	1.231204587763826	0.1595948267444238	2.595296437438725	-8.085622204202418	-0.5113231949264926	-1.897711990908062	-0.03430559262436399	-6.516396312914547	-6.516396312914512	-1.147138195566322	-0.03536724049539033	-0.2297662933667065	-0.9443183155556306	4.039714939273962e-09	-3.425287594683793e-07	-3.585634757791409e-07	-7.553637903914525e-08	-4.625449723178974e-08	-7.437483796313803e-07	5.351048414009988e-08
1.03	-0.5354456602058567	-0.02332459220198257	0.5003713300832209	2.035988774028232	-0.327395956117573	0.1847702206302134	-0.4362718176972584	1.731850034615607	1.731850034615531	0.1166792655086735	-0.1744733479906356	0.4253122368223193	0.273585267899217	-0.1191936099703881	0.002750558618275157	0.1248543121584599	-0.2476213577018803	-0.02304692307021173	-0.1095286689809353	-0.0006035571832670009	-0.3725887970883376	-0.3725887970883411	-0.06130079978494009	0.0001011564730748526	-0.03954417991235887	-0.06152738809676266	-0.2812340276237375	0.06269799052904389	-0.02786881545195725	-0.3112086961769528	-0.001433115322618395	-0.02062893614627655	0.2330770431517734	-39.55927006480548	28.30274165406918	-18.97650297562957	3.857697662616262	-564.8433592256908	-29.98906468149857	-0.02236634170480523	1.233361542891402	0.1691138033701158	2.579304384416057	-8.042046454214006	-0.4709999002374637	-1.775128083495855	-0.004758474618599927	-6.492405459822667	-6.492405459822995	-1.218848876597554	0.01953924614463595	-0.254093071541491	-0.8943002180576157	6.092264635027765e-09	-4.0267352934651e-07	-4.296518615352813e-07	-9.55407476089077e-08	-5.644723450864849e-08	-8.66862658177562e-07	6.246802176033073e-08
1.04	-0.5365749666353059	-0.02328838171167075	0.5017486737100201	2.033110313273308	-0.3276501925941725	0.1835845656054606	-0.4362785982789653	1.727799634496896	1.727799634496819	0.1160068217770244	-0.1744722800846818	0.4249035267613457	0.2729246338139489	-0.1066177864740497	0.004512092867527844	0.1505929453839033	-0.3280417062288173	-0.02777813480866973	-0.1275808003875842	-0.0007532908719458292	-0.4374657234522404	-0.4374657234522463	-0.0731724155942681	0.0001131329152757344	-0.04224616157552871	-0.07059097154554632	-0.2815584962255364	0.06274159220986519	-0.02771110753439499	-0.3100649529752493	-0.001892013219844462	-0.02047810413081869	0.2332601927070388	-39.61401497758143	28.16946595963459	-18.86689714836252	3.659015548953052	-564.5064057956375	-29.91002997039394	-0.02240637557176425	1.291060088047986	0.1841050997783005	2.569444246530234	-8.050733760562894	-0.4841556158351686	-1.871849002184071	-0.03518364441782989	-6.485892854203029	-6.48589285420307	-1.128457230795747	-0.03546189580235298	-0.2878799433676827	-0.9332433419270948	7.208849361201805e-09	-4.534044214411802e-07	-4.863373624740071e-07	-1.116014404493939e-07	-6.51469451729028e-08	-9.566600347937799e-07	6.831391007638651e-08
1.05	-0.537576891564948	-0.02323388456421088	0.5033826452212838	2.029428755102265	-0.3279509890651031	0.1822186739937718	-0.4362868215259063	1.723101365204615	1.723101365204563	0.1152166360990019	-0.1744710730928839	0.4244661527254245	0.2721736509578436	-0.09370562304608712	0.006413525079961043	0.1761689596322449	-0.4082190845052105	-0.03234984951595585	-0.1455845208447301	-0.0008839716502056145	-0.5021490557028599	-0.5021490557028534	-0.08482517239814864	0.0001326112020976416	-0.04529463407821082	-0.0795924027903544	-0.2817264558076021	0.06289060712449537	-0.02749153469393523	-0.3086915363205202	-0.002396604167366184	-0.02029110137594538	0.2333635148018679	-39.65623952796022	28.0056443591621	-18.73797867626319	3.44979364201692	-563.887236906394	-29.81683857781561	-0.02245517479136872	1.300528320670068	0.1970648815426082	2.546805581118254	-7.99361662530329	-0.4389054551541716	-1.762682219479152	-0.0009022641998637977	-6.453706385886352	-6.453706385884457	-1.177749165279651	0.02115684269443906	-0.3232477830390424	-0.881467993902466	8.296185182076483e-09	-5.038411298551172e-07	-5.425727732621888e-07	-1.275388934233402e-07	-7.379999875551324e-08	-1.045416258224687e-06	7.406255935168683e-08
1.06	-0.5384478480902133	-0.02315959257471344	0.5052714019884557	2.024946947795633	-0.3282965478945025	0.1806731354471138	-0.4362961299745521	1.717757431994748	1.717757431994722	0.1143111100009488	-0.1744695704878679	0.4239963105886103	0.2713330787936613	-0.08042410559814447	0.008471061275043637	0.2015499965658222	-0.4880915333466359	-0.03673060650239544	-0.1635101873818467	-0.000970331215260428	-0.566598506969284	-0.5665985069692655	-0.09624049960585176	0.000172255559719486	-0.04873978175371681	-0.08850883316095344	-0.2818944153896618	0.06303962203913425	-0.02727196185342255	-0.3073181196657916	-0.002901195114887435	-0.02010409862105866	0.233466836896707	-39.69846141495049	27.84076137663579	-18.60767863340884	3.223354225901577	-563.3431438622882	-29.7095223800552	-0.02250675425353795	1.364930892044007	0.2153258963081805	2.530448783577415	-7.98974787356929	-0.4459640716658815	-1.856238218178204	-0.02631940177661954	-6.439116657363938	-6.439116657364091	-1.080971311560277	-0.0314286816423973	-0.3672149779324578	-0.9162431670853085	7.893504072184722e-09	-5.382670662814984e-07	-5.73139310411655e-07	-1.381363243117412e-07	-8.053472827354047e-08	-1.079889896618817e-06	7.443655986031568e-08
1.07	-0.5391840150247633	-0.02306388449297215	0.5074128861999635	2.019668139307838	-0.3286849264160873	0.1789486511242043	-0.4363059834277693	1.711770311756795	1.711770311756871	0.1132928009570066	-0.1744676231551255	0.4234898742484625	0.2704037313485396	-0.06673672889968631	0.01070240968269356	0.226703961388923	-0.5676010527162636	-0.04090763922395573	-0.18134927041137	-0.0009820895172292315	-0.6307728261040287	-0.6307728261040375	-0.1073941061483045	0.000220378967538844	-0.0526275892279354	-0.09734540472502394	-0.2819211464812463	0.06327181015125481	-0.02699395161447697	-0.3057040136933877	-0.003463215895692021	-0.01987362456976871	0.2335048162318204	-39.73134254483052	27.64073114850877	-18.45506224236837	2.983710550851864	-562.5271071147242	-29.59942540359366	-0.02256599760708671	1.381520038780077	0.2317876686272859	2.501420152403984	-7.92119194293994	-0.3978666634736596	-1.742135844640184	0.01413644288441269	-6.398697270131513	-6.398697270135515	-1.128477514216102	0.02324512097704278	-0.4116009833650583	-0.8649131542188271	7.411566742571333e-09	-5.718413659000307e-07	-6.023404819420404e-07	-1.484497114721876e-07	-8.716741927749411e-08	-1.111476163468437e-06	7.452467479624919e-08
1.08	-0.5397811323963246	-0.02294491325602768	0.5098046200238457	2.013596308031483	-0.3291139340231021	0.1770468974711329	-0.4363154063665406	1.705143026781775	1.705143026781953	0.112163771409998	-0.1744651321345095	0.4229421523633354	0.2693865083871472	-0.05261419299990136	0.01312369231568017	0.2515999190410695	-0.6466960910571117	-0.04485642358841346	-0.1989640534129258	-0.0008842283275458945	-0.6946314543828526	-0.6946314543828874	-0.1183846002358972	0.0002809931346766534	-0.05699689075009543	-0.1060839364151299	-0.2819478775728622	0.06350399826335582	-0.0267159413753345	-0.3040899077209807	-0.004025236676495595	-0.01964315051851311	0.233542795566899	-39.76489234023816	27.43952021611625	-18.30077470110178	2.728989721450307	-561.7922447475886	-29.47886981361007	-0.02262726541053434	1.451962732309362	0.2533127413755169	2.478847349386557	-7.906851667813343	-0.4003144002453896	-1.811378212584693	-0.004395503445920251	-6.375978486179799	-6.375978486179667	-1.048348820588295	-0.02893052977873771	-0.4635137875207437	-0.8966351922924154	6.722686261433334e-09	-5.97999102518843e-07	-6.22393457734902e-07	-1.557356790572461e-07	-9.17854268692476e-08	-1.124853567261986e-06	7.331043668910238e-08
